<svg id="Layer_1" data-name="Layer 1" xmlns="http://www.w3.org/2000/svg" viewBox="0 0 336.93 337"><defs><style>.cls-1{fill:#031921;}.cls-2,.cls-3{fill:none;stroke-linecap:round;stroke-miterlimit:10;stroke-width:14px;}.cls-2{stroke:#2fb8f4;}.cls-3{stroke:#24c6e0;}</style></defs><title>brand-logo</title><path class="cls-1" d="M323.9,119.38C298.37,84.52,239.44,36.23,203.51,35c-1.14,0-2.32,0-3.51,0s-2.37-.07-3.51,0c-35.93,1.21-94.86,49.5-120.39,84.36-24.24,28.14-45.65,64.2-44.52,89.51,1.49,33.41,44,86.28,78.19,113.73,27.57,25.92,64,49.67,90,49.38l.25,0,.25,0c26,.29,62.41-23.46,90-49.38,34.21-27.45,76.7-80.32,78.19-113.73C369.55,183.58,348.14,147.52,323.9,119.38Z" transform="translate(-31.54 -35)"/><polyline class="cls-2" points="143.64 263.27 143.64 200.09 91.75 250.38"/><polyline class="cls-2" points="143.64 263.27 143.64 200.09 91.75 250.38"/><polyline class="cls-2" points="188.77 263.27 188.77 200.09 240.67 250.38"/><polyline class="cls-2" points="143.64 263.27 143.64 200.09 91.75 250.38"/><polyline class="cls-2" points="188.77 263.27 188.77 200.09 240.67 250.38"/><polyline class="cls-2" points="143.64 73.73 143.64 136.91 91.75 86.63"/><polyline class="cls-2" points="188.77 73.73 188.77 136.91 240.67 86.63"/><polyline class="cls-3" points="256.46 135.18 220.36 168.5 256.46 204.6"/><polyline class="cls-3" points="80.46 135.18 116.57 168.5 80.46 204.6"/></svg>