<svg id="Layer_1" data-name="Layer 1" xmlns="http://www.w3.org/2000/svg" viewBox="0 0 262 320"><defs><style>.cls-1,.cls-2{fill:#6e6e6e;}.cls-2{stroke:#fff;stroke-miterlimit:10;stroke-width:2px;}</style></defs><title>settings</title><path class="cls-1" d="M60,360a10,10,0,0,1-10-10V50a10,10,0,0,1,20,0V350A10,10,0,0,1,60,360Z" transform="translate(-19 -40)"/><path class="cls-1" d="M150,360a10,10,0,0,1-10-10V50a10,10,0,0,1,20,0V350A10,10,0,0,1,150,360Z" transform="translate(-19 -40)"/><path class="cls-1" d="M240,360a10,10,0,0,1-10-10V50a10,10,0,0,1,20,0V350A10,10,0,0,1,240,360Z" transform="translate(-19 -40)"/><path class="cls-2" d="M90,110H30a10,10,0,0,1,0-20H90a10,10,0,0,1,0,20Z" transform="translate(-19 -40)"/><path class="cls-2" d="M180,310H120a10,10,0,0,1,0-20h60a10,10,0,0,1,0,20Z" transform="translate(-19 -40)"/><path class="cls-2" d="M270,180H210a10,10,0,0,1,0-20h60a10,10,0,0,1,0,20Z" transform="translate(-19 -40)"/></svg>