<svg id="Layer_1" data-name="Layer 1" xmlns="http://www.w3.org/2000/svg" viewBox="0 0 350 306.87"><defs><style>.cls-1{fill:none;stroke:#6e6e6e;stroke-linecap:round;stroke-miterlimit:10;stroke-width:20px;}</style></defs><title>support</title><path class="cls-1" d="M350,76.31v147.5a26.25,26.25,0,0,1-26.25,26.25H144a11.74,11.74,0,0,0-7.16,2.44l-6,4.63-36.35,28A4,4,0,0,1,88,281.92V261.79a11.74,11.74,0,0,0-11.74-11.73A26.25,26.25,0,0,1,50,223.81V76.31A26.25,26.25,0,0,1,76.25,50.06h247.5A26.25,26.25,0,0,1,350,76.31Z" transform="translate(-40 -40.06)"/><path class="cls-1" d="M380,162.81V285.33a21.81,21.81,0,0,1-21.81,21.81,9.75,9.75,0,0,0-9.75,9.76v16.7a3.33,3.33,0,0,1-5.36,2.64L307.9,309.16a9.78,9.78,0,0,0-5.95-2H152.6a21.82,21.82,0,0,1-21.81-21.81v-28.2l6-4.63a11.74,11.74,0,0,1,7.16-2.44H323.75A26.25,26.25,0,0,0,350,223.81V141h8.19A21.8,21.8,0,0,1,380,162.81Z" transform="translate(-40 -40.06)"/></svg>