<svg id="Layer_1" data-name="Layer 1" xmlns="http://www.w3.org/2000/svg" viewBox="0 0 379 277.46"><defs><style>.cls-1{fill:none;}.cls-1,.cls-2{stroke:#656565;stroke-miterlimit:10;stroke-width:19px;}.cls-2{fill:#fff;}</style></defs><title>wallet</title><path class="cls-1" d="M232.31,263V137a1.6,1.6,0,0,1,1.6-1.61h118.4V73.18a2.41,2.41,0,0,0-2.42-2.41H22.41A2.41,2.41,0,0,0,20,73.18V326.82a2.41,2.41,0,0,0,2.41,2.41H349.89a2.41,2.41,0,0,0,2.42-2.41v-62.2H233.91A1.6,1.6,0,0,1,232.31,263Z" transform="translate(-10.5 -61.27)"/><path class="cls-1" d="M378.4,135.38H233.91a1.6,1.6,0,0,0-1.6,1.61V263a1.6,1.6,0,0,0,1.6,1.61H378.4A1.61,1.61,0,0,0,380,263V137A1.61,1.61,0,0,0,378.4,135.38Z" transform="translate(-10.5 -61.27)"/><rect class="cls-2" x="204" y="150.23" width="17" height="17" rx="6.22"/></svg>